<svg width="154" height="62" viewBox="0 0 154 62" fill="none" xmlns="http://www.w3.org/2000/svg">
<path d="M4.0032 9.90909H8.20774L18.0941 34.0568H18.435L28.3214 9.90909H32.5259V39H29.2305V16.8977H28.9464L19.8555 39H16.6737L7.58274 16.8977H7.29865V39H4.0032V9.90909ZM42.8937 47.1818C42.3255 47.1818 41.8189 47.1345 41.3738 47.0398C40.9287 46.9545 40.621 46.8693 40.4505 46.7841L41.3028 43.8295C42.1172 44.0379 42.8369 44.1136 43.4619 44.0568C44.0869 44 44.6408 43.7206 45.1238 43.2188C45.6162 42.7263 46.066 41.9261 46.4732 40.8182L47.0982 39.1136L39.03 17.1818H42.6664L48.6891 34.5682H48.9164L54.9391 17.1818H58.5755L49.3141 42.1818C48.8975 43.3087 48.3814 44.2415 47.7658 44.9801C47.1503 45.7282 46.4353 46.2822 45.621 46.642C44.816 47.0019 43.9069 47.1818 42.8937 47.1818ZM62.0967 13.0341V9.90909H83.9148V13.0341H74.7671V39H71.2444V13.0341H62.0967ZM92.9403 39L86.2925 17.1818H89.8153L94.5312 33.8864H94.7585L99.4175 17.1818H102.997L107.599 33.8295H107.827L112.543 17.1818H116.065L109.418 39H106.122L101.349 22.2386H101.008L96.2357 39H92.9403ZM122.097 39V17.1818H125.449V39H122.097ZM123.802 13.5455C123.148 13.5455 122.585 13.3229 122.111 12.8778C121.647 12.4328 121.415 11.8977 121.415 11.2727C121.415 10.6477 121.647 10.1127 122.111 9.66761C122.585 9.22254 123.148 9 123.802 9C124.455 9 125.014 9.22254 125.478 9.66761C125.951 10.1127 126.188 10.6477 126.188 11.2727C126.188 11.8977 125.951 12.4328 125.478 12.8778C125.014 13.3229 124.455 13.5455 123.802 13.5455ZM136.542 25.875V39H133.189V17.1818H136.428V20.5909H136.712C137.223 19.483 138 18.5928 139.042 17.9205C140.083 17.2386 141.428 16.8977 143.076 16.8977C144.553 16.8977 145.846 17.2008 146.953 17.8068C148.061 18.4034 148.923 19.3125 149.539 20.5341C150.154 21.7462 150.462 23.2803 150.462 25.1364V39H147.11V25.3636C147.11 23.6496 146.665 22.3144 145.775 21.358C144.884 20.392 143.663 19.9091 142.11 19.9091C141.04 19.9091 140.083 20.1411 139.24 20.6051C138.407 21.0691 137.749 21.7462 137.266 22.6364C136.783 23.5265 136.542 24.6061 136.542 25.875Z" fill="white"/>
<path d="M116.93 56.25V41.7045H119.565V54.0412H125.971V56.25H116.93ZM132.083 56.4702C131.392 56.4702 130.769 56.3471 130.215 56.1009C129.666 55.8499 129.231 55.4806 128.909 54.9929C128.591 54.5052 128.433 53.9039 128.433 53.1889C128.433 52.5734 128.546 52.0644 128.774 51.6619C129.001 51.2595 129.311 50.9375 129.704 50.696C130.097 50.4545 130.54 50.2723 131.032 50.1491C131.529 50.0213 132.043 49.929 132.573 49.8722C133.213 49.8059 133.731 49.7467 134.129 49.6946C134.526 49.6378 134.815 49.5526 134.995 49.4389C135.18 49.3205 135.272 49.1383 135.272 48.892V48.8494C135.272 48.3144 135.114 47.9001 134.796 47.6065C134.479 47.313 134.022 47.1662 133.426 47.1662C132.796 47.1662 132.296 47.3035 131.927 47.5781C131.562 47.8527 131.316 48.1771 131.188 48.5511L128.788 48.2102C128.977 47.5473 129.29 46.9934 129.725 46.5483C130.161 46.0985 130.694 45.7623 131.323 45.5398C131.953 45.3125 132.649 45.1989 133.411 45.1989C133.937 45.1989 134.46 45.2604 134.981 45.3835C135.502 45.5066 135.978 45.7102 136.409 45.9943C136.839 46.2737 137.185 46.6548 137.445 47.1378C137.711 47.6207 137.843 48.2244 137.843 48.9489V56.25H135.372V54.7514H135.286C135.13 55.0545 134.91 55.3385 134.626 55.6037C134.347 55.8641 133.994 56.0748 133.568 56.2358C133.146 56.392 132.651 56.4702 132.083 56.4702ZM132.751 54.581C133.267 54.581 133.714 54.4792 134.093 54.2756C134.472 54.0672 134.763 53.7926 134.967 53.4517C135.175 53.1108 135.279 52.7391 135.279 52.3366V51.0511C135.199 51.1174 135.061 51.179 134.867 51.2358C134.678 51.2926 134.465 51.3423 134.228 51.3849C133.991 51.4276 133.757 51.4654 133.525 51.4986C133.293 51.5317 133.092 51.5601 132.921 51.5838C132.538 51.6359 132.195 51.7211 131.892 51.8395C131.588 51.9579 131.349 52.1236 131.174 52.3366C130.999 52.545 130.911 52.8149 130.911 53.1463C130.911 53.6198 131.084 53.9773 131.43 54.2188C131.776 54.4602 132.216 54.581 132.751 54.581ZM141.342 56.25V41.7045H143.913V47.1449H144.02C144.152 46.8797 144.339 46.598 144.581 46.2997C144.822 45.9967 145.149 45.7386 145.561 45.5256C145.973 45.3078 146.498 45.1989 147.138 45.1989C147.98 45.1989 148.74 45.4143 149.417 45.8452C150.099 46.2713 150.639 46.9034 151.037 47.7415C151.439 48.5748 151.64 49.5975 151.64 50.8097C151.64 52.0076 151.444 53.0256 151.051 53.8636C150.658 54.7017 150.123 55.3409 149.446 55.7812C148.769 56.2216 148.002 56.4418 147.145 56.4418C146.52 56.4418 146.001 56.3376 145.589 56.1293C145.177 55.9209 144.846 55.67 144.595 55.3764C144.349 55.0781 144.157 54.7964 144.02 54.5312H143.87V56.25H141.342ZM143.863 50.7955C143.863 51.5009 143.963 52.1188 144.162 52.6491C144.365 53.1795 144.656 53.5937 145.035 53.892C145.419 54.1856 145.883 54.3324 146.427 54.3324C146.995 54.3324 147.471 54.1809 147.855 53.8778C148.238 53.5701 148.527 53.151 148.721 52.6207C148.92 52.0857 149.02 51.4773 149.02 50.7955C149.02 50.1184 148.923 49.517 148.728 48.9915C148.534 48.4659 148.245 48.054 147.862 47.7557C147.478 47.4574 147 47.3082 146.427 47.3082C145.878 47.3082 145.412 47.4527 145.028 47.7415C144.645 48.0303 144.353 48.4351 144.155 48.956C143.96 49.4768 143.863 50.09 143.863 50.7955Z" fill="#0AF7C1"/>
<circle cx="123.8" cy="11.25" r="2.5" fill="#0AF7C1"/>
</svg>
